<svg width="181" height="35" viewBox="0 0 181 35" fill="none" xmlns="http://www.w3.org/2000/svg">
<g clip-path="url(#clip0_507_151)">
<path d="M17.0811 0.00390625C21.7381 0.00410523 25.5915 3.43894 26.25 7.91309C30.725 8.57085 34.1599 12.4254 34.1602 17.083C34.1602 21.7408 30.7251 25.5951 26.25 26.2529C25.5927 30.7284 21.7391 34.1648 17.0811 34.165C12.4228 34.165 8.56745 30.7287 7.91016 26.2529C3.43525 25.5949 0 21.7407 0 17.083C0.000258645 12.4255 3.43535 8.57102 7.91016 7.91309C8.56865 3.43873 12.4238 0.00390605 17.0811 0.00390625ZM14.4766 8.32324V10.2607H11.8662V12.5068H13.0254V21.5713H11.8662V23.8184H14.4766V25.8906H16.251V23.8184H17.2529V25.8906H19.0439V23.7969C19.2927 23.7853 19.543 23.7683 19.7441 23.7412C20.8251 23.5604 21.6876 23.121 22.3311 22.4238C22.9873 21.7137 23.3154 20.8481 23.3154 19.8281C23.3154 19.0278 23.0642 18.3179 22.5625 17.6982C22.0606 17.0785 21.4359 16.6712 20.6895 16.4775C21.2299 16.271 21.6873 15.9099 22.0605 15.3936C22.4338 14.8642 22.6201 14.2887 22.6201 13.6689C22.62 12.817 22.3566 12.1005 21.8291 11.5195C21.3144 10.9257 20.6191 10.5382 19.7441 10.3574C19.5475 10.3227 19.2958 10.3006 19.0439 10.2861V8.32324H17.2529V10.2607H16.251V8.32324H14.4766ZM18.4697 17.7363C19.1132 17.7364 19.6409 17.9178 20.0527 18.2793C20.4773 18.6279 20.6895 19.0797 20.6895 19.6348C20.6894 20.2029 20.4774 20.6678 20.0527 21.0293C19.6409 21.3908 19.1132 21.5713 18.4697 21.5713H15.6514V17.7363H18.4697ZM18.2764 12.5068C18.804 12.5068 19.2357 12.6561 19.5703 12.9531C19.9175 13.2371 20.0908 13.6049 20.0908 14.0566C20.0908 14.5213 19.9176 14.9023 19.5703 15.1992C19.2357 15.4833 18.804 15.626 18.2764 15.626H15.6514V12.5068H18.2764Z" fill="#473C75"/>
<path d="M47.8525 29.4894C44.0537 29.4894 41.7473 27.4815 41.4488 24.9852H44.8677C45.2205 26.2605 46.3058 26.8303 47.8525 26.8303C49.8604 26.8303 51.3256 25.7721 51.3256 23.737V21.8919C50.6201 22.9773 49.0192 23.6556 47.2284 23.6556C43.5382 23.6556 40.879 21.0508 40.879 17.0621C40.879 12.992 43.511 10.4414 47.2555 10.4414C49.0463 10.4414 50.5658 11.1198 51.3256 12.178V10.6585H54.7716V23.3843C54.7716 27.2916 52.1396 29.4894 47.8525 29.4894ZM47.8525 20.7252C49.8604 20.7252 51.3256 19.2057 51.3256 17.0621C51.3256 14.8642 49.8604 13.3719 47.8525 13.3719C45.8174 13.3719 44.3522 14.8642 44.3522 17.0621C44.3522 19.2328 45.8174 20.7252 47.8525 20.7252ZM61.111 24.5511C58.2077 24.5511 56.3897 22.8145 56.3897 20.5352C56.3897 17.849 58.2077 16.4109 62.3592 15.9767L65.0183 15.7054V15.4069C65.0183 13.9688 63.9872 13.1005 62.4406 13.1005C61.0025 13.1005 59.9442 13.8331 59.7543 15.2441H56.4168C56.7967 12.4222 59.2659 10.4414 62.4406 10.4414C65.968 10.4414 68.4372 12.3679 68.4372 15.8682V24.334H65.0183V22.5974C64.4213 23.6828 62.8476 24.5511 61.111 24.5511ZM65.0183 18.1746L62.4948 18.5002C60.5683 18.7173 59.7543 19.2599 59.7543 20.3996C59.7543 21.4035 60.5683 21.9733 61.7893 21.9733C63.743 21.9733 65.0183 20.3453 65.0183 18.3917V18.1746ZM70.3717 24.334V10.6585H73.8177V12.5036C74.5775 11.2012 76.0427 10.4414 77.8064 10.4414C78.4034 10.4414 78.8918 10.5228 79.3531 10.7399V13.9688C78.6747 13.7246 78.132 13.6703 77.5079 13.6703C75.5272 13.6703 73.8177 15.2984 73.8177 19.1514V24.334H70.3717ZM85.8355 24.5511C81.8197 24.5511 79.1877 21.7834 79.1877 17.4962C79.1877 13.2091 81.8197 10.4414 85.8355 10.4414C87.6264 10.4414 89.3087 11.2283 90.0684 12.3408V5.12315H93.5144V24.334H90.0684V22.6245C89.3087 23.7642 87.6264 24.5511 85.8355 24.5511ZM86.3782 21.5935C88.5489 21.5935 90.0684 19.9112 90.0684 17.4962C90.0684 15.027 88.5489 13.3719 86.3782 13.3719C84.2075 13.3719 82.688 15.027 82.688 17.4962C82.688 19.9383 84.2075 21.5935 86.3782 21.5935ZM102.123 24.5511C97.8357 24.5511 95.0952 21.6206 95.0952 17.4962C95.0952 13.3719 97.9985 10.4414 101.987 10.4414C106.437 10.4414 109.178 13.8874 108.581 18.2288H98.5412C98.8125 20.5081 100.251 21.6749 102.123 21.6749C103.805 21.6749 104.836 20.8608 105.08 19.8569H108.527C107.984 22.5974 105.922 24.5511 102.123 24.5511ZM98.6769 15.7054H105.026C104.945 14.1316 103.751 13.1005 101.987 13.1005C100.278 13.1005 99.111 13.996 98.6769 15.7054ZM110.361 24.334V10.6585H113.807V12.4493C114.513 11.4182 116.114 10.4414 118.257 10.4414C121.215 10.4414 123.331 12.3408 123.331 15.5426V24.334H119.885V16.2752C119.885 14.5115 118.827 13.4533 117.253 13.4533C115.11 13.4533 113.807 15.2712 113.807 18.3917V24.334H110.361ZM133.045 24.5511C129.029 24.5511 126.316 21.702 126.316 17.4962C126.316 13.2905 129.029 10.4414 133.045 10.4414C135.27 10.4414 137.359 11.6353 138.2 13.4261V5.12315H139.91V24.334H138.2V21.5663C137.359 23.33 135.27 24.5511 133.045 24.5511ZM133.126 23.0316C136.057 23.0316 138.2 20.7252 138.2 17.4962C138.2 14.2402 136.057 11.9609 133.126 11.9609C130.196 11.9609 128.052 14.2402 128.052 17.4962C128.052 20.7523 130.196 23.0316 133.126 23.0316ZM148.952 24.5511C145.018 24.5511 142.142 21.6206 142.142 17.4962C142.142 13.3719 145.018 10.4414 148.952 10.4414C152.887 10.4414 155.736 13.3719 155.736 17.4962C155.736 21.6206 152.86 24.5511 148.952 24.5511ZM148.952 23.0316C151.883 23.0316 153.999 20.7523 153.999 17.4962C153.999 14.2402 151.883 11.9609 148.952 11.9609C146.022 11.9609 143.905 14.2402 143.905 17.4962C143.905 20.7523 146.022 23.0316 148.952 23.0316ZM163.715 24.5511C159.889 24.5511 157.067 21.5663 157.067 17.4962C157.067 13.4261 159.889 10.4414 163.715 10.4414C166.998 10.4414 169.278 12.2322 169.685 14.9999H167.948C167.595 13.2091 165.913 11.9609 163.742 11.9609C160.92 11.9609 158.831 14.2673 158.831 17.4962C158.831 20.698 160.92 23.0316 163.742 23.0316C166.266 23.0316 167.758 21.5392 168.057 19.8569H169.848C169.413 22.3803 167.216 24.5511 163.715 24.5511ZM176.169 24.5511C172.75 24.5511 171.013 22.4346 170.878 19.9112H172.614C172.75 21.5392 173.754 23.0316 176.169 23.0316C177.96 23.0316 179.289 22.109 179.289 20.5081C179.289 16.7365 171.258 18.9615 171.258 13.996C171.258 11.9338 172.994 10.4414 175.708 10.4414C178.828 10.4414 180.456 12.0423 180.646 14.403H178.937C178.692 12.8835 177.688 11.9609 175.708 11.9609C174.161 11.9609 172.967 12.6664 172.967 13.9145C172.967 17.4148 181.026 15.1356 181.026 20.4538C181.026 22.9773 178.964 24.5511 176.169 24.5511Z" fill="#473C75"/>
</g>
<defs>
<clipPath id="clip0_507_151">
<rect width="181" height="34.1606" fill="white"/>
</clipPath>
</defs>
</svg>
