<svg width="3905" height="737" viewBox="0 0 3905 737" fill="none" xmlns="http://www.w3.org/2000/svg">
<g clip-path="url(#clip0_474_16)">
<path d="M368.5 0C468.983 4.39224e-06 552.157 74.1019 566.359 170.64C662.898 184.841 737 268.017 737 368.5C737 468.983 662.898 552.158 566.359 566.359C552.158 662.898 468.983 737 368.5 737C268.017 737 184.841 662.898 170.64 566.359C74.1019 552.157 0 468.983 0 368.5C0 268.017 74.1019 184.842 170.64 170.64C184.842 74.1019 268.017 -4.39224e-06 368.5 0ZM312.301 179.5V221.288L256 221.289V269.759H281V465.32H256V513.79L312.301 513.791V558.5H350.601V513.791H372.199V558.5H410.85V513.336C416.216 513.086 421.606 512.704 425.945 512.119C449.27 508.219 467.874 498.748 481.758 483.705C495.919 468.384 503 449.718 503 427.711C503 410.44 497.585 395.118 486.756 381.747C475.927 368.376 462.46 359.6 446.354 355.422C458.017 350.965 467.874 343.164 475.927 332.021C483.979 320.6 488.006 308.203 488.006 294.831C488.006 276.445 482.313 260.985 470.929 248.449C459.822 235.635 444.827 227.277 425.945 223.377C421.704 222.628 416.283 222.144 410.85 221.832V179.5H372.199V221.288H350.601V179.5H312.301ZM398.456 382.582C412.339 382.582 423.724 386.482 432.609 394.282C441.773 401.804 446.354 411.555 446.354 423.533C446.354 435.79 441.772 445.819 432.609 453.619C423.724 461.419 412.339 465.319 398.456 465.319H337.646V382.582H398.456ZM394.291 269.76C405.676 269.76 414.978 272.964 422.197 279.371C429.694 285.5 433.442 293.439 433.442 303.188C433.442 313.217 429.694 321.436 422.197 327.843C414.978 333.971 405.676 337.035 394.291 337.035H337.646V269.76H394.291Z" fill="#F29FCD"/>
<path d="M1032.36 631.227C950.407 631.227 900.648 587.907 894.209 534.05H967.969C975.58 561.564 998.996 573.857 1032.36 573.857C1075.68 573.857 1107.3 551.026 1107.3 507.121V467.314C1092.07 490.73 1057.54 505.365 1018.9 505.365C939.285 505.365 881.915 449.166 881.915 363.112C881.915 275.301 938.699 220.273 1019.48 220.273C1058.12 220.273 1090.9 234.908 1107.3 257.739V224.957H1181.64V499.511C1181.64 583.809 1124.86 631.227 1032.36 631.227ZM1032.36 442.141C1075.68 442.141 1107.3 409.359 1107.3 363.112C1107.3 315.694 1075.68 283.497 1032.36 283.497C988.459 283.497 956.847 315.694 956.847 363.112C956.847 409.944 988.459 442.141 1032.36 442.141ZM1318.41 524.683C1255.77 524.683 1216.55 487.217 1216.55 438.044C1216.55 380.089 1255.77 349.062 1345.34 339.696L1402.71 333.842V327.402C1402.71 296.376 1380.46 277.643 1347.1 277.643C1316.07 277.643 1293.24 293.449 1289.14 323.89H1217.14C1225.33 263.008 1278.6 220.273 1347.1 220.273C1423.2 220.273 1476.47 261.837 1476.47 337.354V520H1402.71V482.534C1389.83 505.95 1355.88 524.683 1318.41 524.683ZM1402.71 387.113L1348.27 394.138C1306.7 398.821 1289.14 410.53 1289.14 435.116C1289.14 456.776 1306.7 469.07 1333.05 469.07C1375.2 469.07 1402.71 433.946 1402.71 391.797V387.113ZM1518.21 520V224.957H1592.55V264.764C1608.95 236.665 1640.56 220.273 1678.61 220.273C1691.49 220.273 1702.02 222.03 1711.98 226.713V296.376C1697.34 291.107 1685.63 289.936 1672.17 289.936C1629.43 289.936 1592.55 325.061 1592.55 408.188V520H1518.21ZM1851.83 524.683C1765.19 524.683 1708.41 464.972 1708.41 372.478C1708.41 279.985 1765.19 220.273 1851.83 220.273C1890.47 220.273 1926.76 237.25 1943.16 261.252V105.534H2017.5V520H1943.16V483.12C1926.76 507.707 1890.47 524.683 1851.83 524.683ZM1863.54 460.874C1910.37 460.874 1943.16 424.579 1943.16 372.478C1943.16 319.207 1910.37 283.497 1863.54 283.497C1816.71 283.497 1783.93 319.207 1783.93 372.478C1783.93 425.165 1816.71 460.874 1863.54 460.874ZM2203.23 524.683C2110.73 524.683 2051.61 461.46 2051.61 372.478C2051.61 283.497 2114.24 220.273 2200.3 220.273C2296.3 220.273 2355.43 294.62 2342.55 388.284H2125.95C2131.81 437.458 2162.83 462.63 2203.23 462.63C2239.52 462.63 2261.77 445.068 2267.03 423.408H2341.38C2329.67 482.534 2285.18 524.683 2203.23 524.683ZM2128.88 333.842H2265.86C2264.11 299.888 2238.35 277.643 2200.3 277.643C2163.42 277.643 2138.25 296.961 2128.88 333.842ZM2380.96 520V224.957H2455.31V263.593C2470.53 241.348 2505.07 220.273 2551.32 220.273C2615.13 220.273 2660.79 261.252 2660.79 330.329V520H2586.44V346.135C2586.44 308.084 2563.61 285.253 2529.66 285.253C2483.41 285.253 2455.31 324.475 2455.31 391.797V520H2380.96ZM2858.06 524.683C2769.66 524.683 2711.12 463.801 2711.12 372.478C2711.12 281.155 2769.66 220.273 2858.06 220.273C2901.38 220.273 2942.36 240.762 2959.92 272.96V105.534H3010.26V520H2959.92V471.412C2942.36 503.609 2901.38 524.683 2858.06 524.683ZM2860.99 481.363C2918.94 481.363 2959.92 436.287 2959.92 372.478C2959.92 308.084 2918.94 263.593 2860.99 263.593C2804.2 263.593 2762.05 308.084 2762.05 372.478C2762.05 436.873 2804.2 481.363 2860.99 481.363ZM3202.43 524.683C3115.79 524.683 3053.15 461.46 3053.15 372.478C3053.15 283.497 3115.79 220.273 3202.43 220.273C3289.07 220.273 3351.71 283.497 3351.71 372.478C3351.71 461.46 3288.48 524.683 3202.43 524.683ZM3202.43 480.778C3259.8 480.778 3300.78 436.287 3300.78 372.478C3300.78 308.084 3259.8 263.593 3202.43 263.593C3145.06 263.593 3104.08 308.084 3104.08 372.478C3104.08 436.287 3145.06 480.778 3202.43 480.778ZM3522.08 524.683C3437.78 524.683 3376.31 460.289 3376.31 372.478C3376.31 284.082 3437.78 220.273 3522.08 220.273C3595.84 220.273 3646.18 260.081 3655.55 323.89H3604.03C3597.59 288.18 3564.81 263.593 3522.66 263.593C3468.22 263.593 3427.24 308.669 3427.24 372.478C3427.24 435.702 3467.63 480.778 3522.66 480.778C3570.66 480.778 3600.52 452.093 3606.37 419.311H3657.89C3648.52 477.851 3599.35 524.683 3522.08 524.683ZM3793.63 524.683C3719.87 524.683 3679.48 480.193 3676.55 423.408H3726.31C3728.65 454.435 3747.97 481.949 3793.63 481.949C3827.58 481.949 3851.59 464.972 3851.59 436.287C3851.59 364.283 3684.16 408.188 3684.16 300.474C3684.16 254.812 3722.21 220.273 3783.68 220.273C3854.51 220.273 3891.39 255.983 3895.49 308.669H3846.32C3841.05 281.155 3821.73 263.008 3783.68 263.008C3755.58 263.008 3733.33 274.716 3733.33 297.547C3733.33 364.283 3901.93 318.621 3901.93 433.946C3901.93 488.974 3856.27 524.683 3793.63 524.683Z" fill="#F29FCD"/>
</g>
<defs>
<clipPath id="clip0_474_16">
<rect width="3905" height="737" fill="white"/>
</clipPath>
</defs>
</svg>
